<svg width="20" height="20" viewBox="0 0 20 20" fill="none" xmlns="http://www.w3.org/2000/svg">
<mask id="mask0_23_27754" style="mask-type:alpha" maskUnits="userSpaceOnUse" x="0" y="0" width="20" height="20">
<rect width="20" height="20" fill="#D9D9D9"/>
</mask>
<g mask="url(#mask0_23_27754)">
<path d="M5 15.8333V16.25C5 16.5972 4.87847 16.8923 4.63542 17.1354C4.39236 17.3784 4.09722 17.5 3.75 17.5C3.40278 17.5 3.10764 17.3784 2.86458 17.1354C2.62153 16.8923 2.5 16.5972 2.5 16.25V10.2916C2.5 10.1944 2.50694 10.0972 2.52083 9.99996C2.53472 9.90274 2.55556 9.81246 2.58333 9.72913L4.14583 5.29163C4.25694 4.95829 4.45833 4.68746 4.75 4.47913C5.04167 4.27079 5.36806 4.16663 5.72917 4.16663H14.2708C14.6319 4.16663 14.9583 4.27079 15.25 4.47913C15.5417 4.68746 15.7431 4.95829 15.8542 5.29163L17.4167 9.72913C17.4444 9.81246 17.4653 9.90274 17.4792 9.99996C17.4931 10.0972 17.5 10.1944 17.5 10.2916V16.25C17.5 16.5972 17.3785 16.8923 17.1354 17.1354C16.8924 17.3784 16.5972 17.5 16.25 17.5C15.9028 17.5 15.6076 17.3784 15.3646 17.1354C15.1215 16.8923 15 16.5972 15 16.25V15.8333H5ZM4.83333 8.33329H15.1667L14.2917 5.83329H5.70833L4.83333 8.33329ZM6.25 13.3333C6.59722 13.3333 6.89236 13.2118 7.13542 12.9687C7.37847 12.7257 7.5 12.4305 7.5 12.0833C7.5 11.7361 7.37847 11.4409 7.13542 11.1979C6.89236 10.9548 6.59722 10.8333 6.25 10.8333C5.90278 10.8333 5.60764 10.9548 5.36458 11.1979C5.12153 11.4409 5 11.7361 5 12.0833C5 12.4305 5.12153 12.7257 5.36458 12.9687C5.60764 13.2118 5.90278 13.3333 6.25 13.3333ZM13.75 13.3333C14.0972 13.3333 14.3924 13.2118 14.6354 12.9687C14.8785 12.7257 15 12.4305 15 12.0833C15 11.7361 14.8785 11.4409 14.6354 11.1979C14.3924 10.9548 14.0972 10.8333 13.75 10.8333C13.4028 10.8333 13.1076 10.9548 12.8646 11.1979C12.6215 11.4409 12.5 11.7361 12.5 12.0833C12.5 12.4305 12.6215 12.7257 12.8646 12.9687C13.1076 13.2118 13.4028 13.3333 13.75 13.3333Z" fill="#584B4D"/>
</g>
</svg>
