<svg width="20" height="20" fill="none" xmlns="http://www.w3.org/2000/svg">
    <mask id="a" style="mask-type:alpha" maskUnits="userSpaceOnUse" x="0" y="0" width="20" height="20">
        <path fill="#D9D9D9" d="M0 0h20v20H0z"/>
    </mask>
    <g mask="url(#a)">
        <path d="M5 17.917a2.011 2.011 0 0 1-1.478-.605 2.011 2.011 0 0 1-.605-1.479v-1.33a.73.73 0 0 1 .215-.537.73.73 0 0 1 .538-.216h1.747V2.655c0-.086.035-.144.105-.173.07-.03.137-.018.2.036l.613.508a.356.356 0 0 0 .236.093.356.356 0 0 0 .235-.093l.699-.57a.356.356 0 0 1 .235-.094c.085 0 .163.031.236.093l.699.57a.356.356 0 0 0 .235.094.356.356 0 0 0 .236-.093l.699-.57a.356.356 0 0 1 .235-.094c.085 0 .163.031.236.093l.698.57a.356.356 0 0 0 .236.094.356.356 0 0 0 .236-.093l.698-.57a.356.356 0 0 1 .236-.094c.084 0 .163.031.235.093l.7.57a.356.356 0 0 0 .235.094.356.356 0 0 0 .235-.093l.699-.57a.356.356 0 0 1 .236-.094c.084 0 .162.031.235.093l.699.57a.356.356 0 0 0 .236.094.356.356 0 0 0 .235-.093l.612-.508c.064-.054.131-.066.201-.036.07.029.105.087.105.173v13.178c0 .583-.201 1.075-.605 1.479a2.011 2.011 0 0 1-1.478.605H5Zm10-1.25c.236 0 .434-.08.594-.24.16-.16.24-.358.24-.594V4.167H6.666v9.583h6.747a.73.73 0 0 1 .537.216.73.73 0 0 1 .216.537v1.33c0 .236.08.434.24.594.159.16.357.24.593.24ZM8.285 6.042h3.478c.177 0 .326.06.445.18.12.119.18.267.18.445 0 .177-.06.325-.18.445a.605.605 0 0 1-.445.18H8.285a.605.605 0 0 1-.445-.18.605.605 0 0 1-.18-.445c0-.178.06-.326.18-.446s.268-.18.445-.18Zm0 2.5h3.478c.177 0 .326.06.445.18.12.119.18.267.18.445 0 .177-.06.325-.18.445a.605.605 0 0 1-.445.18H8.285a.605.605 0 0 1-.445-.18.605.605 0 0 1-.18-.445c0-.178.06-.326.18-.446s.268-.18.445-.18Zm5.834-1.138a.71.71 0 0 1-.522-.216.71.71 0 0 1-.216-.521.71.71 0 0 1 .216-.522.71.71 0 0 1 .522-.216.71.71 0 0 1 .521.216.71.71 0 0 1 .216.522.71.71 0 0 1-.216.521.71.71 0 0 1-.521.216Zm0 2.5a.71.71 0 0 1-.522-.216.71.71 0 0 1-.216-.521.71.71 0 0 1 .216-.522.71.71 0 0 1 .522-.216.71.71 0 0 1 .521.216.71.71 0 0 1 .216.522.71.71 0 0 1-.216.521.71.71 0 0 1-.521.216ZM5 16.667h7.917V15h-8.75v.833c0 .236.08.434.24.594.159.16.357.24.593.24Z" fill="#584B4D"/>
    </g>
</svg>
