<svg width="20" height="20" viewBox="0 0 20 20" fill="none" xmlns="http://www.w3.org/2000/svg">
<mask id="mask0_23_27751" style="mask-type:alpha" maskUnits="userSpaceOnUse" x="0" y="0" width="20" height="20">
<rect width="20" height="20" fill="#D9D9D9"/>
</mask>
<g mask="url(#mask0_23_27751)">
<path d="M5 17.9166C4.41775 17.9166 3.92496 17.715 3.52165 17.3117C3.11834 16.9083 2.91669 16.4156 2.91669 15.8333V14.5032C2.91669 14.2885 2.98854 14.1093 3.13225 13.9656C3.27594 13.8219 3.45516 13.75 3.6699 13.75H5.41669V2.65545C5.41669 2.56893 5.45168 2.51097 5.52167 2.48158C5.59164 2.4522 5.65868 2.46423 5.72279 2.51764L6.33496 3.02564C6.40761 3.08761 6.48614 3.1186 6.57054 3.1186C6.65494 3.1186 6.73346 3.08761 6.8061 3.02564L7.50483 2.45514C7.57749 2.39317 7.65601 2.36218 7.7404 2.36218C7.8248 2.36218 7.90333 2.39317 7.97598 2.45514L8.67469 3.02564C8.74734 3.08761 8.82587 3.1186 8.91027 3.1186C8.99467 3.1186 9.07319 3.08761 9.14583 3.02564L9.84456 2.45514C9.91722 2.39317 9.99574 2.36218 10.0801 2.36218C10.1645 2.36218 10.2431 2.39317 10.3157 2.45514L11.0144 3.02564C11.0871 3.08761 11.1656 3.1186 11.25 3.1186C11.3344 3.1186 11.4129 3.08761 11.4856 3.02564L12.1843 2.45514C12.2569 2.39317 12.3355 2.36218 12.4199 2.36218C12.5043 2.36218 12.5828 2.39317 12.6554 2.45514L13.3542 3.02564C13.4268 3.08761 13.5053 3.1186 13.5897 3.1186C13.6741 3.1186 13.7527 3.08761 13.8253 3.02564L14.524 2.45514C14.5967 2.39317 14.6752 2.36218 14.7596 2.36218C14.844 2.36218 14.9225 2.39317 14.9952 2.45514L15.6939 3.02564C15.7665 3.08761 15.8451 3.1186 15.9295 3.1186C16.0139 3.1186 16.0924 3.08761 16.165 3.02564L16.7772 2.51764C16.8413 2.46423 16.9084 2.4522 16.9783 2.48158C17.0483 2.51097 17.0833 2.56893 17.0833 2.65545V15.8333C17.0833 16.4156 16.8817 16.9083 16.4784 17.3117C16.075 17.715 15.5823 17.9166 15 17.9166H5ZM15 16.6666C15.2361 16.6666 15.434 16.5868 15.5938 16.4271C15.7535 16.2673 15.8333 16.0694 15.8333 15.8333V4.16664H6.66667V13.75H13.4135C13.6282 13.75 13.8074 13.8219 13.9511 13.9656C14.0948 14.1093 14.1667 14.2885 14.1667 14.5032V15.8333C14.1667 16.0694 14.2465 16.2673 14.4063 16.4271C14.566 16.5868 14.7639 16.6666 15 16.6666ZM8.28525 6.04166H11.7628C11.9402 6.04166 12.0887 6.10149 12.2083 6.22114C12.328 6.3408 12.3878 6.48929 12.3878 6.66664C12.3878 6.84399 12.328 6.99249 12.2083 7.11214C12.0887 7.23179 11.9402 7.29162 11.7628 7.29162H8.28525C8.1079 7.29162 7.9594 7.23179 7.83975 7.11214C7.7201 6.99249 7.66027 6.84399 7.66027 6.66664C7.66027 6.48929 7.7201 6.3408 7.83975 6.22114C7.9594 6.10149 8.1079 6.04166 8.28525 6.04166ZM8.28525 8.54166H11.7628C11.9402 8.54166 12.0887 8.60149 12.2083 8.72114C12.328 8.8408 12.3878 8.9893 12.3878 9.16664C12.3878 9.34399 12.328 9.49249 12.2083 9.61214C12.0887 9.73179 11.9402 9.79162 11.7628 9.79162H8.28525C8.1079 9.79162 7.9594 9.73179 7.83975 9.61214C7.7201 9.49249 7.66027 9.34399 7.66027 9.16664C7.66027 8.9893 7.7201 8.8408 7.83975 8.72114C7.9594 8.60149 8.1079 8.54166 8.28525 8.54166ZM14.1186 7.40381C13.9145 7.40381 13.7407 7.33196 13.597 7.18827C13.4533 7.04457 13.3814 6.8707 13.3814 6.66664C13.3814 6.46259 13.4533 6.28871 13.597 6.14502C13.7407 6.00132 13.9145 5.92948 14.1186 5.92948C14.3226 5.92948 14.4965 6.00132 14.6402 6.14502C14.7839 6.28871 14.8557 6.46259 14.8557 6.66664C14.8557 6.8707 14.7839 7.04457 14.6402 7.18827C14.4965 7.33196 14.3226 7.40381 14.1186 7.40381ZM14.1186 9.90381C13.9145 9.90381 13.7407 9.83196 13.597 9.68827C13.4533 9.54457 13.3814 9.3707 13.3814 9.16664C13.3814 8.96259 13.4533 8.78871 13.597 8.64502C13.7407 8.50132 13.9145 8.42948 14.1186 8.42948C14.3226 8.42948 14.4965 8.50132 14.6402 8.64502C14.7839 8.78871 14.8557 8.96259 14.8557 9.16664C14.8557 9.3707 14.7839 9.54457 14.6402 9.68827C14.4965 9.83196 14.3226 9.90381 14.1186 9.90381ZM5 16.6666H12.9167V15H4.16667V15.8333C4.16667 16.0694 4.24653 16.2673 4.40625 16.4271C4.56597 16.5868 4.76389 16.6666 5 16.6666Z" fill="#584B4D"/>
</g>
</svg>
