<svg width="20" height="20" viewBox="0 0 20 20" fill="none" xmlns="http://www.w3.org/2000/svg">
<mask id="mask0_23_27748" style="mask-type:alpha" maskUnits="userSpaceOnUse" x="0" y="0" width="20" height="20">
<rect width="20" height="20" fill="#D9D9D9"/>
</mask>
<g mask="url(#mask0_23_27748)">
<path d="M9.97921 11.2084L4.22921 16.9167C4.07643 17.0695 3.88546 17.1493 3.6563 17.1563C3.42713 17.1632 3.22921 17.0834 3.06255 16.9167C2.90977 16.7639 2.83338 16.5695 2.83338 16.3334C2.83338 16.0972 2.90977 15.9028 3.06255 15.75L11.0209 7.79168C10.7709 7.20835 10.7362 6.54863 10.9167 5.81252C11.0973 5.07641 11.4931 4.41668 12.1042 3.83335C12.8403 3.09724 13.6598 2.66668 14.5625 2.54168C15.4653 2.41668 16.2014 2.63891 16.7709 3.20835C17.3403 3.7778 17.5625 4.51391 17.4375 5.41668C17.3125 6.31946 16.882 7.13891 16.1459 7.87502C15.5625 8.48613 14.9028 8.88196 14.1667 9.06252C13.4306 9.24307 12.7709 9.20835 12.1875 8.95835L11.1459 10L16.8959 15.75C17.0487 15.9028 17.1285 16.0938 17.1355 16.3229C17.1424 16.5521 17.0625 16.75 16.8959 16.9167C16.7431 17.0695 16.5487 17.1459 16.3125 17.1459C16.0764 17.1459 15.882 17.0695 15.7292 16.9167L9.97921 11.2084ZM6.10421 10.375L3.60421 7.87502C3.02088 7.29168 2.65282 6.55557 2.50005 5.66668C2.34727 4.7778 2.52088 3.98613 3.02088 3.29168C3.17366 3.08335 3.37852 2.9653 3.63546 2.93752C3.89241 2.90974 4.11116 2.99307 4.29171 3.18752L8.77088 7.70835L6.10421 10.375Z" fill="#584B4D"/>
</g>
</svg>
