<svg width="52" height="16" viewBox="0 0 52 16" fill="none" xmlns="http://www.w3.org/2000/svg">
<mask id="mask0_23_20273" style="mask-type:alpha" maskUnits="userSpaceOnUse" x="0" y="0" width="16" height="16">
<rect width="16" height="16" fill="#D9D9D9"/>
</mask>
<g mask="url(#mask0_23_20273)">
<path d="M4.57497 13.3772V12.1515H3.99997C3.78717 12.1515 3.60758 12.0783 3.4612 11.9319C3.31483 11.7855 3.24164 11.6059 3.24164 11.3931C3.24164 11.1803 3.31483 11.0007 3.4612 10.8544C3.60758 10.708 3.78717 10.6348 3.99997 10.6348H4.57497V9.38119H3.99997C3.78717 9.38119 3.60758 9.308 3.4612 9.16162C3.31483 9.01524 3.24164 8.83565 3.24164 8.62285C3.24164 8.41004 3.31483 8.23045 3.4612 8.08407C3.60758 7.93769 3.78717 7.8645 3.99997 7.8645H4.57497V2.62285C4.57497 2.41004 4.64816 2.23045 4.79454 2.08407C4.94092 1.93769 5.1205 1.8645 5.3333 1.8645H8.99997C10.0461 1.8645 10.934 2.22936 11.6637 2.95907C12.3934 3.68878 12.7583 4.57671 12.7583 5.62285C12.7583 6.66899 12.3934 7.55691 11.6637 8.28662C10.934 9.01633 10.0461 9.38119 8.99997 9.38119H6.09164V10.6348H7.99997C8.21277 10.6348 8.39236 10.708 8.53874 10.8544C8.68512 11.0007 8.75831 11.1803 8.75831 11.3931C8.75831 11.6059 8.68512 11.7855 8.53874 11.9319C8.39236 12.0783 8.21277 12.1515 7.99997 12.1515H6.09164V13.3772C6.09164 13.59 6.01845 13.7696 5.87207 13.916C5.72569 14.0623 5.5461 14.1355 5.3333 14.1355C5.1205 14.1355 4.94092 14.0623 4.79454 13.916C4.64816 13.7696 4.57497 13.59 4.57497 13.3772ZM6.09164 7.8645H8.99997C9.6205 7.8645 10.1493 7.64602 10.5862 7.20907C11.0232 6.77211 11.2416 6.24337 11.2416 5.62285C11.2416 5.00232 11.0232 4.47357 10.5862 4.03662C10.1493 3.59966 9.6205 3.38118 8.99997 3.38118H6.09164V7.8645Z" fill="#584B4D"/>
</g>
<mask id="mask1_23_20273" style="mask-type:alpha" maskUnits="userSpaceOnUse" x="12" y="0" width="16" height="16">
<rect x="12" width="16" height="16" fill="#D9D9D9"/>
</mask>
<g mask="url(#mask1_23_20273)">
<path d="M16.575 13.3772V12.1515H16C15.7872 12.1515 15.6076 12.0783 15.4612 11.9319C15.3149 11.7855 15.2417 11.6059 15.2417 11.3931C15.2417 11.1803 15.3149 11.0007 15.4612 10.8544C15.6076 10.708 15.7872 10.6348 16 10.6348H16.575V9.38119H16C15.7872 9.38119 15.6076 9.308 15.4612 9.16162C15.3149 9.01524 15.2417 8.83565 15.2417 8.62285C15.2417 8.41004 15.3149 8.23045 15.4612 8.08407C15.6076 7.93769 15.7872 7.8645 16 7.8645H16.575V2.62285C16.575 2.41004 16.6482 2.23045 16.7946 2.08407C16.9409 1.93769 17.1205 1.8645 17.3333 1.8645H21C22.0461 1.8645 22.9341 2.22936 23.6638 2.95907C24.3935 3.68878 24.7583 4.57671 24.7583 5.62285C24.7583 6.66899 24.3935 7.55691 23.6638 8.28662C22.9341 9.01633 22.0461 9.38119 21 9.38119H18.0917V10.6348H20C20.2128 10.6348 20.3924 10.708 20.5388 10.8544C20.6851 11.0007 20.7583 11.1803 20.7583 11.3931C20.7583 11.6059 20.6851 11.7855 20.5388 11.9319C20.3924 12.0783 20.2128 12.1515 20 12.1515H18.0917V13.3772C18.0917 13.59 18.0185 13.7696 17.8721 13.916C17.7257 14.0623 17.5461 14.1355 17.3333 14.1355C17.1205 14.1355 16.9409 14.0623 16.7946 13.916C16.6482 13.7696 16.575 13.59 16.575 13.3772ZM18.0917 7.8645H21C21.6205 7.8645 22.1493 7.64602 22.5862 7.20907C23.0232 6.77211 23.2417 6.24337 23.2417 5.62285C23.2417 5.00232 23.0232 4.47357 22.5862 4.03662C22.1493 3.59966 21.6205 3.38118 21 3.38118H18.0917V7.8645Z" fill="#5B484A"/>
</g>
<mask id="mask2_23_20273" style="mask-type:alpha" maskUnits="userSpaceOnUse" x="24" y="0" width="16" height="16">
<rect x="24" width="16" height="16" fill="#D9D9D9"/>
</mask>
<g mask="url(#mask2_23_20273)">
<path d="M28.6667 13.3333V12H28C27.8111 12 27.6528 11.9361 27.525 11.8083C27.3972 11.6806 27.3333 11.5222 27.3333 11.3333C27.3333 11.1444 27.3972 10.9861 27.525 10.8583C27.6528 10.7306 27.8111 10.6667 28 10.6667H28.6667V9.33333H28C27.8111 9.33333 27.6528 9.26944 27.525 9.14167C27.3972 9.01389 27.3333 8.85556 27.3333 8.66667C27.3333 8.47778 27.3972 8.31944 27.525 8.19167C27.6528 8.06389 27.8111 8 28 8H28.6667V2.66667C28.6667 2.47778 28.7306 2.31944 28.8583 2.19167C28.9861 2.06389 29.1445 2 29.3333 2H33C34.0222 2 34.8889 2.35556 35.6 3.06667C36.3111 3.77778 36.6667 4.64444 36.6667 5.66667C36.6667 6.68889 36.3111 7.55556 35.6 8.26667C34.8889 8.97778 34.0222 9.33333 33 9.33333H30V10.6667H32C32.1889 10.6667 32.3472 10.7306 32.475 10.8583C32.6028 10.9861 32.6667 11.1444 32.6667 11.3333C32.6667 11.5222 32.6028 11.6806 32.475 11.8083C32.3472 11.9361 32.1889 12 32 12H30V13.3333C30 13.5222 29.9361 13.6806 29.8083 13.8083C29.6806 13.9361 29.5222 14 29.3333 14C29.1445 14 28.9861 13.9361 28.8583 13.8083C28.7306 13.6806 28.6667 13.5222 28.6667 13.3333ZM30 8H33C33.6445 8 34.1945 7.77222 34.65 7.31667C35.1056 6.86111 35.3333 6.31111 35.3333 5.66667C35.3333 5.02222 35.1056 4.47222 34.65 4.01667C34.1945 3.56111 33.6445 3.33333 33 3.33333H30V8Z" fill="#AB9C9E"/>
</g>
<mask id="mask3_23_20273" style="mask-type:alpha" maskUnits="userSpaceOnUse" x="36" y="0" width="16" height="16">
<rect x="36" width="16" height="16" fill="#D9D9D9"/>
</mask>
<g mask="url(#mask3_23_20273)">
<path d="M40.6667 13.3333V12H40C39.8111 12 39.6528 11.9361 39.525 11.8083C39.3972 11.6806 39.3333 11.5222 39.3333 11.3333C39.3333 11.1444 39.3972 10.9861 39.525 10.8583C39.6528 10.7306 39.8111 10.6667 40 10.6667H40.6667V9.33333H40C39.8111 9.33333 39.6528 9.26944 39.525 9.14167C39.3972 9.01389 39.3333 8.85556 39.3333 8.66667C39.3333 8.47778 39.3972 8.31944 39.525 8.19167C39.6528 8.06389 39.8111 8 40 8H40.6667V2.66667C40.6667 2.47778 40.7306 2.31944 40.8583 2.19167C40.9861 2.06389 41.1445 2 41.3333 2H45C46.0222 2 46.8889 2.35556 47.6 3.06667C48.3111 3.77778 48.6667 4.64444 48.6667 5.66667C48.6667 6.68889 48.3111 7.55556 47.6 8.26667C46.8889 8.97778 46.0222 9.33333 45 9.33333H42V10.6667H44C44.1889 10.6667 44.3472 10.7306 44.475 10.8583C44.6028 10.9861 44.6667 11.1444 44.6667 11.3333C44.6667 11.5222 44.6028 11.6806 44.475 11.8083C44.3472 11.9361 44.1889 12 44 12H42V13.3333C42 13.5222 41.9361 13.6806 41.8083 13.8083C41.6806 13.9361 41.5222 14 41.3333 14C41.1445 14 40.9861 13.9361 40.8583 13.8083C40.7306 13.6806 40.6667 13.5222 40.6667 13.3333ZM42 8H45C45.6445 8 46.1945 7.77222 46.65 7.31667C47.1056 6.86111 47.3333 6.31111 47.3333 5.66667C47.3333 5.02222 47.1056 4.47222 46.65 4.01667C46.1945 3.56111 45.6445 3.33333 45 3.33333H42V8Z" fill="#AB9C9E"/>
</g>
</svg>
