<svg width="16" height="16" viewBox="0 0 16 16" fill="none" xmlns="http://www.w3.org/2000/svg">
<mask id="mask0_2003_152" style="mask-type:alpha" maskUnits="userSpaceOnUse" x="0" y="0" width="16" height="16">
<rect width="16" height="16" fill="#D9D9D9"/>
</mask>
<g mask="url(#mask0_2003_152)">
<path d="M4.66665 13.3333V12H3.99998C3.81109 12 3.65276 11.9361 3.52498 11.8083C3.3972 11.6806 3.33331 11.5222 3.33331 11.3333C3.33331 11.1444 3.3972 10.9861 3.52498 10.8583C3.65276 10.7306 3.81109 10.6667 3.99998 10.6667H4.66665V9.33333H3.99998C3.81109 9.33333 3.65276 9.26944 3.52498 9.14167C3.3972 9.01389 3.33331 8.85556 3.33331 8.66667C3.33331 8.47778 3.3972 8.31944 3.52498 8.19167C3.65276 8.06389 3.81109 8 3.99998 8H4.66665V2.66667C4.66665 2.47778 4.73054 2.31944 4.85831 2.19167C4.98609 2.06389 5.14442 2 5.33331 2H8.99998C10.0222 2 10.8889 2.35556 11.6 3.06667C12.3111 3.77778 12.6666 4.64444 12.6666 5.66667C12.6666 6.68889 12.3111 7.55556 11.6 8.26667C10.8889 8.97778 10.0222 9.33333 8.99998 9.33333H5.99998V10.6667H7.99998C8.18887 10.6667 8.3472 10.7306 8.47498 10.8583C8.60276 10.9861 8.66665 11.1444 8.66665 11.3333C8.66665 11.5222 8.60276 11.6806 8.47498 11.8083C8.3472 11.9361 8.18887 12 7.99998 12H5.99998V13.3333C5.99998 13.5222 5.93609 13.6806 5.80831 13.8083C5.68054 13.9361 5.5222 14 5.33331 14C5.14442 14 4.98609 13.9361 4.85831 13.8083C4.73054 13.6806 4.66665 13.5222 4.66665 13.3333ZM5.99998 8H8.99998C9.64442 8 10.1944 7.77222 10.65 7.31667C11.1055 6.86111 11.3333 6.31111 11.3333 5.66667C11.3333 5.02222 11.1055 4.47222 10.65 4.01667C10.1944 3.56111 9.64442 3.33333 8.99998 3.33333H5.99998V8Z" fill="#AB9C9E"/>
</g>
</svg>
