<svg width="22" height="22" viewBox="0 0 22 22" fill="none" xmlns="http://www.w3.org/2000/svg">
<path d="M21.7813 20.1308L15.9688 14.3183C17.3741 12.4644 17.9858 10.1283 17.6694 7.8236C17.353 5.51888 16.1343 3.43413 14.2813 2.02763C12.4335 0.618733 10.102 0.00111443 7.79911 0.310512C5.49621 0.61991 3.41037 1.83101 2.00002 3.67763C0.711906 5.36455 0.0796138 7.46154 0.220521 9.57934C0.361427 11.6971 1.26596 13.6919 2.76621 15.1933C4.26646 16.6947 6.26051 17.6007 8.3782 17.7433C10.4959 17.8858 12.5934 17.2551 14.2813 15.9683L20.0938 21.7808L21.7813 20.1308ZM9.0219 15.3776C7.76661 15.3795 6.53896 15.0091 5.49419 14.3132C4.44942 13.6173 3.63447 12.6273 3.15237 11.4683C2.67028 10.3092 2.54271 9.03327 2.78579 7.80174C3.02886 6.57021 3.63167 5.43841 4.51799 4.54948C5.4043 3.66054 6.53431 3.05439 7.76512 2.80768C8.99593 2.56096 10.2723 2.68476 11.4327 3.16343C12.5932 3.6421 13.5856 4.45412 14.2845 5.49683C14.9835 6.53954 15.3575 7.76609 15.3594 9.02138C15.3606 9.85486 15.1977 10.6804 14.8799 11.4509C14.562 12.2214 14.0956 12.9218 13.5071 13.512C12.9186 14.1023 12.2196 14.5708 11.45 14.8909C10.6805 15.211 9.85538 15.3764 9.0219 15.3776Z" fill="black"/>
</svg>
