<svg width="20" height="20" viewBox="0 0 20 20" fill="none" xmlns="http://www.w3.org/2000/svg">
<mask id="mask0_23_27757" style="mask-type:alpha" maskUnits="userSpaceOnUse" x="0" y="0" width="20" height="20">
<rect width="20" height="20" fill="#D9D9D9"/>
</mask>
<g mask="url(#mask0_23_27757)">
<path d="M9.99996 13.3333C10.6666 13.3333 11.2604 13.1354 11.7812 12.7395C12.302 12.3437 12.6805 11.8333 12.9166 11.2083H7.08329C7.3194 11.8333 7.69788 12.3437 8.21871 12.7395C8.73954 13.1354 9.33329 13.3333 9.99996 13.3333ZM7.91663 9.99996C8.26385 9.99996 8.55899 9.87843 8.80204 9.63538C9.0451 9.39232 9.16663 9.09718 9.16663 8.74996C9.16663 8.40274 9.0451 8.1076 8.80204 7.86454C8.55899 7.62149 8.26385 7.49996 7.91663 7.49996C7.5694 7.49996 7.27427 7.62149 7.03121 7.86454C6.78815 8.1076 6.66663 8.40274 6.66663 8.74996C6.66663 9.09718 6.78815 9.39232 7.03121 9.63538C7.27427 9.87843 7.5694 9.99996 7.91663 9.99996ZM12.0833 9.99996C12.4305 9.99996 12.7257 9.87843 12.9687 9.63538C13.2118 9.39232 13.3333 9.09718 13.3333 8.74996C13.3333 8.40274 13.2118 8.1076 12.9687 7.86454C12.7257 7.62149 12.4305 7.49996 12.0833 7.49996C11.7361 7.49996 11.4409 7.62149 11.1979 7.86454C10.9548 8.1076 10.8333 8.40274 10.8333 8.74996C10.8333 9.09718 10.9548 9.39232 11.1979 9.63538C11.4409 9.87843 11.7361 9.99996 12.0833 9.99996ZM6.35413 5.33329L8.68746 2.31246C8.85413 2.09024 9.05204 1.92704 9.28121 1.82288C9.51038 1.71871 9.74996 1.66663 9.99996 1.66663C10.25 1.66663 10.4895 1.71871 10.7187 1.82288C10.9479 1.92704 11.1458 2.09024 11.3125 2.31246L13.6458 5.33329L17.1875 6.52079C17.5486 6.6319 17.8333 6.83676 18.0416 7.13538C18.25 7.43399 18.3541 7.76385 18.3541 8.12496C18.3541 8.29163 18.3298 8.45829 18.2812 8.62496C18.2326 8.79163 18.1527 8.95135 18.0416 9.10413L15.75 12.3541L15.8333 15.7708C15.8472 16.2569 15.6875 16.6666 15.3541 17C15.0208 17.3333 14.6319 17.5 14.1875 17.5C14.1597 17.5 14.0069 17.4791 13.7291 17.4375L9.99996 16.3958L6.27079 17.4375C6.20135 17.4652 6.12496 17.4826 6.04163 17.4895C5.95829 17.4965 5.8819 17.5 5.81246 17.5C5.36802 17.5 4.97913 17.3333 4.64579 17C4.31246 16.6666 4.15274 16.2569 4.16663 15.7708L4.24996 12.3333L1.97913 9.10413C1.86801 8.95135 1.78815 8.79163 1.73954 8.62496C1.69093 8.45829 1.66663 8.29163 1.66663 8.12496C1.66663 7.77774 1.76732 7.45482 1.96871 7.15621C2.1701 6.8576 2.45135 6.64579 2.81246 6.52079L6.35413 5.33329Z" fill="#A72536"/>
</g>
</svg>
