<svg width="25" height="18" fill="none" xmlns="http://www.w3.org/2000/svg">
    <g clip-path="url(#a)">
        <path d="M25 0H0v16h25V0Z" fill="#fff"/>
        <path d="M25 3.69H0v1.23h25V3.69Z" fill="#fff"/>
        <path d="M25 4H0v2h25V4ZM25 0H0v2h25V0Z" fill="#CB001C"/>
        <path d="M12.53 0H0v8h12.53V0Z" fill="#2A3560"/>
        <path d="m1.98 1 .23.72h.77l-.62.46.23.72-.61-.44-.62.44.23-.72-.61-.46h.77L1.98 1ZM5.98 1l.23.72h.77l-.62.46.23.72-.61-.44-.62.44.23-.72-.61-.46h.77L5.98 1ZM9.98 1l.23.72h.77l-.62.46.23.72-.61-.44-.62.44.23-.72-.61-.46h.77L9.98 1ZM3.98 3l.23.72h.77l-.62.46.23.72-.61-.44-.62.44.23-.72-.61-.46h.77L3.98 3ZM7.98 3l.23.72h.77l-.62.46.23.72-.61-.44-.62.44.23-.72-.61-.46h.77L7.98 3ZM1.98 5l.23.72h.77l-.62.46.23.72-.61-.44-.62.44.23-.72-.61-.46h.77L1.98 5ZM5.98 5l.23.72h.77l-.62.46.23.72-.61-.44-.62.44.23-.72-.61-.46h.77L5.98 5ZM9.98 5l.23.72h.77l-.62.46.23.72-.61-.44-.62.44.23-.72-.61-.46h.77L9.98 5Z" fill="#fff"/>
        <path d="M25 8H0v2h25V8ZM25 12H0v2h25v-2ZM25 16H0v2h25v-2Z" fill="#CB001C"/>
    </g>
    <defs>
        <clipPath id="a">
            <path fill="#fff" d="M0 0h25v18H0z"/>
        </clipPath>
    </defs>
</svg>
