<svg width="237" height="42" fill="none" xmlns="http://www.w3.org/2000/svg">
    <g clip-path="url(#a)">
        <g clip-path="url(#b)">
            <g clip-path="url(#c)" fill="#2B2B2B">
                <path d="M46.804 14.966h-2.04v8.203H41.48V.561h5.842c4.328 0 6.782 2.584 6.782 7.068 0 3.525-1.485 5.943-4.07 6.884l4.91 8.656h-3.59l-4.549-8.204Zm-2.04-3.101h2.52c2.298 0 3.488-1.486 3.488-4.171 0-2.685-1.19-4.033-3.451-4.033h-2.556v8.204ZM68.83 17.834c-.294 3.618-2.518 5.685-6.2 5.685-3.682 0-5.786-2.326-5.786-6.395v-5.066c0-4.042 2.233-6.321 5.86-6.321 3.626 0 5.942 2.288 5.942 6.33v3.82h-8.665v1.292c0 2.316.997 3.368 2.769 3.368 1.9 0 2.713-.84 2.999-2.685l3.082-.028Zm-8.849-5.813v1.458h5.537V12.02c0-2.326-1.034-3.36-2.768-3.36-1.735 0-2.769 1.034-2.769 3.36ZM70.834 17.936h3.1a2.629 2.629 0 0 0 2.492 2.768c.147.014.295.014.442 0 1.652 0 2.584-.803 2.584-2.131 0-3.424-8.36-2.261-8.36-8.075 0-2.916 2.16-4.761 5.454-4.761 3.617 0 5.536 2.26 5.647 5.426h-3.027a2.353 2.353 0 0 0-2.085-2.593 2.592 2.592 0 0 0-.535 0c-1.486 0-2.39.738-2.39 1.937 0 3.23 8.397 1.966 8.397 8.075 0 2.999-2.132 5.001-5.657 5.001-3.839 0-6.035-2.519-6.063-5.647ZM92.823 20.418v2.944h-1.19c-3.396 0-5.398-2.17-5.398-5.685V8.984h-2.39V6.142h2.39V2.11h3.1v4.032h3.166v2.842h-3.166v8.748c0 1.846.776 2.713 2.455 2.713l1.033-.027ZM106.425 11.865V23.17h-2.556l-.221-1.587a4.194 4.194 0 0 1-3.784 2.003 4.946 4.946 0 0 1-5.232-5.233c0-3.488 2.427-5.269 6.173-5.269h2.501v-1.218c0-2.002-.738-3.137-2.454-3.137a2.383 2.383 0 0 0-2.575 2.187.204.204 0 0 0 0 .074h-3.128c.157-3.258 2.353-5.26 5.776-5.26 3.627.009 5.5 2.224 5.5 6.136Zm-3.119 3.904h-2.482c-1.91 0-3.008.876-3.008 2.556 0 1.68 1.005 2.482 2.713 2.482a2.576 2.576 0 0 0 2.768-2.371 2.163 2.163 0 0 0 0-.342l.009-2.325ZM121.568 6.143v17.025h-2.224l-.35-1.91a4.618 4.618 0 0 1-4.236 2.326c-2.934 0-4.78-2.095-4.78-6.746V6.143h3.138v10.529c0 2.768.738 3.94 2.39 3.94 1.651 0 2.906-1.42 2.906-3.94V6.142h3.156ZM134.035 6.013v3.1a5.224 5.224 0 0 0-2.122-.387c-2.132 0-3.488 1.393-3.488 3.94v10.502h-3.138V6.142h2.233l.351 1.975a5.426 5.426 0 0 1 6.164-2.104ZM147.083 11.865V23.17h-2.546l-.231-1.587a4.154 4.154 0 0 1-3.774 2.003 4.937 4.937 0 0 1-5.233-4.614 3.76 3.76 0 0 1 0-.637c0-3.488 2.418-5.27 6.165-5.27h2.491v-1.199c0-2.002-.747-3.137-2.454-3.137a2.383 2.383 0 0 0-2.575 2.168.286.286 0 0 0 0 .093h-3.138c.167-3.258 2.363-5.26 5.786-5.26 3.636.009 5.509 2.224 5.509 6.136Zm-3.128 3.904h-2.491c-1.901 0-2.999.876-2.999 2.556 0 1.68.996 2.482 2.713 2.482a2.593 2.593 0 0 0 2.768-2.39v-.323l.009-2.325ZM162.365 12.474v10.695h-3.128v-10.53c0-2.767-.748-3.94-2.39-3.94-1.781 0-2.907 1.422-2.907 3.94v10.53h-3.138V6.143h2.233l.323 1.91a4.618 4.618 0 0 1 4.254-2.316c2.907 0 4.753 2.086 4.753 6.737ZM173.503 20.418v2.944h-1.191c-3.396 0-5.398-2.17-5.398-5.685V8.984h-2.39V6.142h2.39V2.11h3.101v4.032h3.165v2.842h-3.165v8.748c0 1.846.775 2.713 2.454 2.713l1.034-.027ZM182.869 16.45V7.224c0-4.614 2.519-7.041 6.626-7.041 4.106 0 6.459 2.427 6.588 6.884h-3.266c-.129-2.62-1.292-3.747-3.359-3.747s-3.295 1.19-3.295 3.94v9.173c0 2.769 1.292 3.94 3.387 3.94 2.095 0 3.461-1.2 3.461-3.783v-2.824h-3.59V10.86h6.782v5.749c-.064 4.429-2.611 6.911-6.681 6.911-4.069 0-6.653-2.482-6.653-7.068ZM210.876 6.143v17.025h-2.233l-.323-1.91a4.617 4.617 0 0 1-4.227 2.326c-2.971 0-4.817-2.095-4.817-6.774V6.143h3.129v10.529c0 2.768.747 3.94 2.39 3.94 1.642 0 2.906-1.42 2.906-3.94V6.142h3.175ZM223.343 6.013v3.1a5.13 5.13 0 0 0-2.104-.387c-2.132 0-3.488 1.394-3.488 3.94v10.502h-3.128V6.142h2.187l.359 1.975a4.754 4.754 0 0 1 4.393-2.38c.606-.02 1.21.074 1.781.276ZM237 6.143v17.025h-2.224l-.323-1.91a4.611 4.611 0 0 1-4.235 2.326c-2.935 0-4.78-2.095-4.78-6.746V6.143h3.137v10.529c0 2.768.738 3.94 2.39 3.94 1.652 0 2.907-1.42 2.907-3.94V6.142H237ZM49.48 29.416v9.542h-.803v-8.859h-4.023l-.222 3.931a16.604 16.604 0 0 1-.396 3.082 2.768 2.768 0 0 1-.776 1.384 2.067 2.067 0 0 1-1.356.443h-.332v-.673h.258a1.345 1.345 0 0 0 1.015-.425c.274-.376.455-.813.526-1.273.16-.896.256-1.803.286-2.713l.24-4.42 5.583-.019ZM53.965 37.804l2.058-5.942h.849l-3.018 8.305-.157.369a1.975 1.975 0 0 1-2.445 1.19v-.646l.406.046c.325-.008.64-.12.895-.323a2.16 2.16 0 0 0 .628-.922l.35-.923-2.667-7.013h.858l2.243 5.86ZM63.11 38.958h-.785v-3a5.297 5.297 0 0 1-1.845.36 2.85 2.85 0 0 1-2.04-.618 2.685 2.685 0 0 1-.664-1.928v-1.91h.775v1.845c-.045.537.12 1.07.462 1.486a1.985 1.985 0 0 0 1.476.443 5.99 5.99 0 0 0 1.846-.342v-3.432h.784l-.01 7.096ZM66.035 31.862v6.404h3.128v-6.404h.775v6.404h3.12v-6.404h.784v7.096H65.25v-7.096h.784ZM80.458 31.862h.784v7.096h-.784v-5.832l-3.811 5.832h-.775v-7.096h.775v5.813l3.81-5.813ZM86.068 39.058a3.055 3.055 0 0 1-1.624-.443 2.99 2.99 0 0 1-1.135-1.236 3.848 3.848 0 0 1-.406-1.781v-.286a4.106 4.106 0 0 1 .397-1.846c.24-.521.62-.965 1.098-1.282a2.768 2.768 0 0 1 1.532-.462 2.538 2.538 0 0 1 2.04.923c.538.68.807 1.534.756 2.4v.442h-5.048v.148c-.025.73.221 1.444.692 2.002a2.206 2.206 0 0 0 1.735.803c.382.002.759-.076 1.108-.23.362-.169.679-.422.922-.739l.49.379a2.87 2.87 0 0 1-2.557 1.208Zm-.138-6.662a1.946 1.946 0 0 0-1.486.646 3.027 3.027 0 0 0-.738 1.735h4.245v-.083c0-.604-.205-1.19-.581-1.661a1.845 1.845 0 0 0-1.44-.637ZM99.181 35.469a4.189 4.189 0 0 1-.729 2.62 2.342 2.342 0 0 1-1.956.924 2.638 2.638 0 0 1-2.224-1.015v3.598h-.775v-9.735h.72v.997a2.51 2.51 0 0 1 2.215-1.126 2.345 2.345 0 0 1 1.983.922c.525.787.777 1.724.72 2.667l.046.148Zm-.784-.138a3.692 3.692 0 0 0-.554-2.141 1.846 1.846 0 0 0-1.55-.785 2.085 2.085 0 0 0-2.02 1.357v3.35c.167.382.447.704.802.922.374.22.802.332 1.237.323a1.773 1.773 0 0 0 1.54-.793 3.94 3.94 0 0 0 .545-2.233ZM103.657 39.058a3.086 3.086 0 0 1-1.634-.443 2.998 2.998 0 0 1-1.135-1.236 3.859 3.859 0 0 1-.406-1.781v-.286a4.276 4.276 0 0 1 .397-1.846 3.234 3.234 0 0 1 1.108-1.282c.451-.3.98-.46 1.522-.462a2.536 2.536 0 0 1 2.04.923c.538.68.808 1.534.756 2.4v.442h-5.038v.148a2.94 2.94 0 0 0 .683 2.002 2.196 2.196 0 0 0 1.734.803c.382.007.76-.072 1.108-.23a2.49 2.49 0 0 0 .923-.739l.489.379a2.855 2.855 0 0 1-2.547 1.208Zm-.148-6.662a1.946 1.946 0 0 0-1.486.646 3.03 3.03 0 0 0-.738 1.735h4.245v-.083a2.582 2.582 0 0 0-.581-1.661 1.844 1.844 0 0 0-1.44-.637ZM110.439 38.404c.499.018.988-.146 1.375-.461a1.628 1.628 0 0 0 .591-1.2h.757a2.174 2.174 0 0 1-.406 1.181c-.252.36-.592.65-.988.84a3.136 3.136 0 0 1-1.329.296 2.768 2.768 0 0 1-2.205-.923 3.922 3.922 0 0 1-.812-2.593v-.277a4.233 4.233 0 0 1 .369-1.846 2.77 2.77 0 0 1 1.052-1.255 2.953 2.953 0 0 1 1.596-.433 2.706 2.706 0 0 1 1.911.692 2.516 2.516 0 0 1 .812 1.846h-.757a1.854 1.854 0 0 0-.591-1.339 2.132 2.132 0 0 0-3.008.24 3.408 3.408 0 0 0-.59 2.141v.23a3.343 3.343 0 0 0 .627 2.123 1.952 1.952 0 0 0 1.596.738ZM119.796 32.499h-2.574v6.46h-.785v-6.46h-2.473v-.665h5.832v.665ZM120.645 35.266a4.275 4.275 0 0 1 .397-1.845c.247-.52.634-.961 1.117-1.274a3.018 3.018 0 0 1 1.642-.452 2.906 2.906 0 0 1 2.28.987c.614.731.927 1.668.876 2.621v.166a4.114 4.114 0 0 1-.396 1.846c-.238.52-.623.96-1.108 1.264a3.117 3.117 0 0 1-1.642.443 2.938 2.938 0 0 1-2.289-.987 3.841 3.841 0 0 1-.923-2.621l.046-.148Zm.785.213a3.22 3.22 0 0 0 .655 2.076 2.212 2.212 0 0 0 2.354.728 2.216 2.216 0 0 0 1.088-.728c.46-.616.692-1.373.655-2.141v-.148a3.455 3.455 0 0 0-.304-1.485 2.33 2.33 0 0 0-.84-1.043 2.095 2.095 0 0 0-1.237-.37 2.074 2.074 0 0 0-1.707.822 3.322 3.322 0 0 0-.664 2.14v.149ZM134.257 35.47a4.196 4.196 0 0 1-.729 2.62 2.344 2.344 0 0 1-1.966.923 2.617 2.617 0 0 1-2.215-1.015v3.6h-.784v-9.736h.729v.996a2.514 2.514 0 0 1 2.215-1.126 2.337 2.337 0 0 1 1.993.923 4.34 4.34 0 0 1 .72 2.667l.037.148Zm-.785-.139a3.687 3.687 0 0 0-.553-2.14 1.85 1.85 0 0 0-1.551-.785 2.184 2.184 0 0 0-1.236.35 2.106 2.106 0 0 0-.785 1.007v3.35c.168.382.448.703.803.922a2.29 2.29 0 0 0 1.227.323 1.773 1.773 0 0 0 1.542-.793c.406-.672.599-1.45.553-2.234ZM140.449 38.957a3.974 3.974 0 0 1-.148-.987 2.77 2.77 0 0 1-1.052.83c-.423.191-.883.289-1.347.287a2.353 2.353 0 0 1-1.652-.573 1.848 1.848 0 0 1-.646-1.402 1.85 1.85 0 0 1 .923-1.661 4.068 4.068 0 0 1 2.399-.6h1.412v-.803a1.627 1.627 0 0 0-.106-.648 1.626 1.626 0 0 0-.356-.551 1.926 1.926 0 0 0-1.365-.434c-.488-.02-.968.13-1.357.424a1.242 1.242 0 0 0-.535 1.006h-.784a1.845 1.845 0 0 1 .784-1.458 3.036 3.036 0 0 1 1.929-.618 2.767 2.767 0 0 1 1.845.59 2.089 2.089 0 0 1 .702 1.652v3.34c-.029.521.047 1.042.221 1.533v.073h-.867Zm-2.455-.563c.494.01.98-.122 1.403-.378.406-.233.729-.588.922-1.015v-1.578h-1.393a3.557 3.557 0 0 0-1.846.425 1.33 1.33 0 0 0-.212 2.131c.315.263.716.401 1.126.388v.028ZM148.587 38.958h-.784V35.69h-3.811v3.267h-.784v-7.096h.784v3.165h3.811v-3.165h.784v7.096ZM151.541 34.427h2.039a3.09 3.09 0 0 1 1.375.286c.379.163.7.437.923.784.205.356.311.761.304 1.172a2.095 2.095 0 0 1-.71 1.643 2.771 2.771 0 0 1-1.892.618h-2.768v-7.068h.784l-.055 2.565Zm0 .664v3.175h2.02c.481.029.955-.122 1.329-.425a1.63 1.63 0 0 0 .476-1.149 1.629 1.629 0 0 0-.476-1.149 1.845 1.845 0 0 0-1.273-.452h-2.076Zm7.004 3.867h-.794v-7.096h.784l.01 7.096ZM167.901 37.869l2.769-6.007h.969v7.096h-.785v-5.832l-2.685 5.832h-.563l-2.768-5.934v5.934h-.776v-7.096h1.071l2.768 6.007ZM178.403 31.862h.784v7.096h-.784v-5.832l-3.811 5.832h-.784v-7.096h.784v5.813l3.811-5.813ZM186.967 35.469a4.263 4.263 0 0 1-.739 2.62 2.318 2.318 0 0 1-1.956.924 2.642 2.642 0 0 1-2.224-1.015v3.598h-.775v-9.735h.72v.997a2.506 2.506 0 0 1 2.214-1.126 2.348 2.348 0 0 1 1.984.922c.527.786.783 1.723.729 2.667l.047.148Zm-.785-.138a3.583 3.583 0 0 0-.563-2.141 1.84 1.84 0 0 0-1.541-.785 2.084 2.084 0 0 0-2.03 1.357v3.35c.167.382.448.704.803.922.374.22.802.332 1.236.323a1.774 1.774 0 0 0 1.542-.793c.406-.671.599-1.45.553-2.233ZM193.158 38.957a4.027 4.027 0 0 1-.157-.987c-.27.362-.629.648-1.042.83-.424.191-.883.289-1.348.287a2.351 2.351 0 0 1-1.651-.573 1.852 1.852 0 0 1-.628-1.43 1.85 1.85 0 0 1 .858-1.633 4.044 4.044 0 0 1 2.39-.6h1.421v-.803a1.54 1.54 0 0 0-.47-1.2 1.948 1.948 0 0 0-1.357-.433c-.487-.02-.967.13-1.356.424a1.22 1.22 0 0 0-.535 1.006h-.785a1.846 1.846 0 0 1 .785-1.458 2.98 2.98 0 0 1 1.928-.618 2.77 2.77 0 0 1 1.846.59 2.113 2.113 0 0 1 .683 1.615v3.34c-.027.52.045 1.04.212 1.533v.11h-.794Zm-2.454-.563c.49.005.972-.125 1.393-.378.407-.233.729-.588.923-1.015v-1.578h-1.403a3.55 3.55 0 0 0-1.845.425 1.319 1.319 0 0 0-.489 1.8c.068.125.159.238.267.331a1.7 1.7 0 0 0 1.154.388v.028ZM204.813 35.469a4.183 4.183 0 0 1-.729 2.62 2.346 2.346 0 0 1-1.956.924 2.642 2.642 0 0 1-2.224-1.015v3.598h-.775v-9.735h.72v.997a2.506 2.506 0 0 1 2.214-1.126 2.348 2.348 0 0 1 1.984.922c.551.79.82 1.743.766 2.704v.111Zm-.784-.138a3.696 3.696 0 0 0-.554-2.141 1.84 1.84 0 0 0-1.55-.785 2.085 2.085 0 0 0-2.021 1.357v3.35c.167.382.448.704.803.922.374.22.802.332 1.236.323a1.774 1.774 0 0 0 1.541-.793 3.924 3.924 0 0 0 .526-2.233h.019ZM211.688 31.862v7.096h-.784v-2.88h-2.197l-1.725 2.88h-.868l1.781-2.944a1.95 1.95 0 0 1-1.126-.738 2.102 2.102 0 0 1-.406-1.274 1.918 1.918 0 0 1 .692-1.54 2.871 2.871 0 0 1 1.846-.573l2.787-.027Zm-4.54 2.122a1.388 1.388 0 0 0 .397 1.015 1.508 1.508 0 0 0 1.098.415h2.261v-2.916h-2.003a1.9 1.9 0 0 0-1.283.397 1.303 1.303 0 0 0-.47 1.089ZM213.635 38.266l.341-.443c.611-.98.931-2.113.923-3.267l.12-2.694h4.18v6.404h.729v2.768h-.775v-2.076h-5.315v2.076h-.72v-2.768h.517Zm.923 0h3.912V32.59h-2.676l-.083 1.845a6.46 6.46 0 0 1-1.181 3.83h.028ZM221.036 35.267a4.102 4.102 0 0 1 .397-1.845 2.965 2.965 0 0 1 2.768-1.726 2.88 2.88 0 0 1 2.289.987c.609.733.922 1.669.876 2.621v.166a4.26 4.26 0 0 1-.397 1.846c-.241.52-.629.96-1.116 1.264a3.12 3.12 0 0 1-1.643.443 2.943 2.943 0 0 1-2.298-.988 3.83 3.83 0 0 1-.876-2.62v-.148Zm.784.212a3.227 3.227 0 0 0 .655 2.077 2.207 2.207 0 0 0 3.101.332c.12-.102.231-.213.332-.332.46-.616.692-1.373.655-2.141v-.148a3.58 3.58 0 0 0-.295-1.486 2.439 2.439 0 0 0-.84-1.042 2.222 2.222 0 0 0-2.953.452 3.318 3.318 0 0 0-.655 2.14v.148ZM232.875 37.869l2.768-6.007h.923v7.096h-.784v-5.832l-2.769 5.804h-.516l-2.769-5.933v5.96h-.775v-7.095h1.024l2.898 6.007Z"/>
            </g>
        </g>
    </g>
    <path d="M18.554 8.54V4.99l.622.995c1.01 1.482 2.04 2.945 3.07 4.426l.39.585a.816.816 0 0 0 1.01.254l4.335-1.521 4.801-1.638c.447-.2.93-.306 1.419-.312a2.578 2.578 0 0 1 2.08 1.053c.413.514.639 1.153.641 1.813a3.262 3.262 0 0 1-.777 2.126c-.525.663-1.03 1.365-1.536 1.95-.505.585-1.186 1.599-1.827 2.379l-2.313 3.178c-.095.098-.174.21-.233.332a.841.841 0 0 0 .194 1.014l.991 1.326 1.691 2.184c.486.604.953 1.229 1.42 1.833l1.516 1.95c.362.42.645.902.835 1.423-.018.228.022.456.117.663v.195a2.931 2.931 0 0 1-.447 1.444 2.713 2.713 0 0 1-3.052 1.306c-.836-.215-1.613-.546-2.41-.819l-5.073-1.774-1.944-.703a1.008 1.008 0 0 0-1.205.215 4.566 4.566 0 0 0-.564.8 77.725 77.725 0 0 1-1.944 2.69l-2.974 4.447A3.41 3.41 0 0 1 16.3 40.07a3.88 3.88 0 0 1-1.01.429h-1.012a3.878 3.878 0 0 1-.933-.39 2.764 2.764 0 0 1-1.244-1.833 4.494 4.494 0 0 1-.097-.877V17.198a5.866 5.866 0 0 1 .583-2.75 3.27 3.27 0 0 1 1.73-1.658 1.323 1.323 0 0 0 .7-.877c.16-.412.251-.846.272-1.287V2.514a1.036 1.036 0 0 1 .544-1.014h.622c.253.137.506.234.584.566v8.58a4.984 4.984 0 0 1-.778 2.768c-.3.455-.716.819-1.205 1.053a2.433 2.433 0 0 0-1.205 1.619c-.104.414-.15.84-.136 1.268v20.084a1.095 1.095 0 0 0 .734.997c.14.048.286.067.432.056h.253c.27-.134.488-.353.622-.623.194-.274.369-.566.544-.839l1.05-1.502 3.304-4.875a4.655 4.655 0 0 1 1.458-1.618 2.869 2.869 0 0 1 2.04-.331c.811.231 1.609.505 2.392.819l4.781 1.657 2.644.917a.756.756 0 0 0 .835-.254.936.936 0 0 0 .214-.897 3.082 3.082 0 0 0-.641-.936c-.953-1.268-1.944-2.515-2.896-3.783-.953-1.267-1.497-1.95-2.294-2.983a3.376 3.376 0 0 1-.894-2.672 2.54 2.54 0 0 1 .389-1.112c.505-.74 1.069-1.442 1.613-2.164.544-.722 1.477-1.95 2.216-2.964l2.313-3.081a.684.684 0 0 0 .175-.507.976.976 0 0 0-.933-.975.91.91 0 0 0-.33 0l-2.722.975c-1.944.721-4.062 1.423-6.084 2.165-.665.294-1.399.395-2.118.292a2.602 2.602 0 0 1-1.692-.897c-.758-1.034-1.457-2.106-2.196-3.159a2.403 2.403 0 0 0-.37-.604ZM7.144 1.5a1.034 1.034 0 0 1 .545 1.017v8.02a3.927 3.927 0 0 0 .35 1.702c.155.328.426.586.76.724.606.29 1.114.752 1.46 1.33.41.65.663 1.386.741 2.151v23.2a.843.843 0 0 1-.779.84.737.737 0 0 1-.876-.586.57.57 0 0 1 0-.255V17.15a3.65 3.65 0 0 0-.585-1.957 1.66 1.66 0 0 0-.604-.665 3.586 3.586 0 0 1-1.947-2.425 6.442 6.442 0 0 1-.195-1.37V2.596A1.06 1.06 0 0 1 6.54 1.5h.604Z" fill="#2B2B2B"/>
    <path d="M7 23.228v2.13c0 .16 0 .16-.164.12L3.91 24.463c-.694-.22-1.407-.399-2.083-.657a2.578 2.578 0 0 1-1.207-.83 2.936 2.936 0 0 1-.621-1.4v-1.254c.085-.353.22-.689.402-.995a2.7 2.7 0 0 1 1.572-1.195c.786-.239 1.553-.517 2.321-.776l2.687-.856v1.99l-1.718.578-2.742.896a.89.89 0 0 0-.52.431 1.029 1.029 0 0 0-.101.703.96.96 0 0 0 .225.432c.11.12.246.204.396.245 1.225.398 2.45.797 3.656 1.155.26.14.536.241.822.298Z" fill="#2B2B2B"/>
    <path d="M6.982 23.5a2.502 2.502 0 0 1-.77-.235 82.661 82.661 0 0 1-3.581-1.24.896.896 0 0 1-.51-.462 1.198 1.198 0 0 1-.1-.755c.038-.176.114-.336.221-.463a.82.82 0 0 1 .389-.264l2.686-.961L7 18.5l-.018 5Z" fill="#D61516"/>
    <path d="M13.889 6.524v4.141c.009.1-.005.201-.04.296a.743.743 0 0 1-.166.26.856.856 0 0 1-.266.185.952.952 0 0 1-.325.08 1.03 1.03 0 0 1-.693-.126.823.823 0 0 1-.392-.519v-8.36a.807.807 0 0 1 .204-.646c.161-.183.399-.302.66-.331.252-.02.504.043.708.175a.777.777 0 0 1 .317.28c.074.117.11.25.103.384l-.11 4.18ZM10.889 6.524v4.141c.009.1-.005.201-.04.296a.743.743 0 0 1-.166.26.856.856 0 0 1-.266.185.952.952 0 0 1-.325.08 1.03 1.03 0 0 1-.693-.126.823.823 0 0 1-.392-.519v-8.36a.807.807 0 0 1 .204-.646c.161-.183.399-.302.66-.331.252-.02.504.043.708.175a.777.777 0 0 1 .317.28c.074.117.11.25.103.384l-.11 4.18Z" fill="#2B2B2B"/>
    <path d="M18.333 7.5c.183.18.335.387.452.616.746 1.074 1.453 2.167 2.218 3.22.417.501.993.839 1.63.954.75.127 1.521.03 2.219-.278 1.963-.755 4.103-1.47 6.145-2.206l2.749-.994a.951.951 0 0 1 .73.045.97.97 0 0 1 .487.551c.019.112.019.226 0 .338a.704.704 0 0 1-.177.517l-2.356 3.1c-.746 1.014-1.511 1.988-2.238 3.022-.726 1.033-1.12 1.45-1.63 2.206-.217.341-.351.73-.392 1.133a3.478 3.478 0 0 0 .903 2.723 72.382 72.382 0 0 1 2.317 3.041c.766 1.054 1.963 2.564 2.925 3.856.273.275.492.599.648.954a.967.967 0 0 1-.216.915.765.765 0 0 1-.844.258l-2.67-.934-4.83-1.69c-.79-.32-1.597-.598-2.415-.834a2.875 2.875 0 0 0-2.062.338A4.73 4.73 0 0 0 20.453 30l-3.337 4.968-1.06 1.531H15.8c-.51 0-.648-.239-.785-.656a3.448 3.448 0 0 1 0-.636V16.226a2.79 2.79 0 0 1 .333-1.193.728.728 0 0 1 .334-.258 4.993 4.993 0 0 0 1.541-1.471 5.065 5.065 0 0 0 .796-1.988c.144-.58.23-1.172.255-1.769.059-.695 0-1.272.059-2.047Z" fill="#D61516"/>
    <defs>
        <clipPath id="a">
            <path fill="#fff" d="M0 0h237v42H0z"/>
        </clipPath>
        <clipPath id="b">
            <path fill="#fff" d="M0 0h237v42H0z"/>
        </clipPath>
        <clipPath id="c">
            <path fill="#fff" transform="translate(0 .182)" d="M0 0h237v41.636H0z"/>
        </clipPath>
    </defs>
</svg>
